#!OML:ASF F:\VICON\USERDATA\INSTALL\Justin_Nancy\Justin_Nancy.ASF
:FULLY-SPECIFIED
:DEGREES
80
root 9.84071 17.3656 -17.5871 1.94261 -6.87957 -3.98727
lowerback 5.31846 1.81155 4.25479
upperback 0.12344 2.76285 3.18958
thorax -2.81315 1.33638 0.695058
lowerneck -15.8426 -4.05688 -9.88807
upperneck 23.8521 -4.24288 4.61733
head 10.6048 -2.30079 2.72512
rclavicle -1.98785e-014 -1.59028e-014
rhumerus -23.3533 -5.77083 -81.6704
rradius 34.638
rwrist 3.19412
rhand -14.1651 12.5543
rfingers 7.12502
rthumb 11.9699 -17.0835
lclavicle -1.98785e-014 -1.59028e-014
lhumerus -35.5404 14.8338 81.4073
lradius 21.1829
lwrist -13.6787
lhand -13.3076 27.9517
lfingers 7.12502
lthumb 12.7966 57.5395
rfemur 13.2791 5.03834 31.7022
rtibia 9.77749
rfoot -12.3579 -2.30201
rtoes 3.24601
lfemur -29.5536 -2.05813 -14.4464
ltibia 23.0453
lfoot -10.5606 7.96661
ltoes -4.3037
81
root 9.84809 17.3544 -17.4477 1.91372 -7.08903 -3.83197
lowerback 5.08815 1.92091 4.20948
upperback 0.237307 2.88125 3.08374
thorax -2.56064 1.4003 0.613193
lowerneck -15.3773 -4.08848 -9.77225
upperneck 23.3448 -4.36189 4.64155
head 10.3367 -2.34058 2.69692
rclavicle -2.18663e-015 1.27222e-014
rhumerus -23.3506 -6.0512 -81.7071
rradius 34.6509
rwrist 3.2078
rhand -14.1685 12.7558
rfingers 7.12502
rthumb 11.9666 -16.8822
lclavicle -2.18663e-015 1.27222e-014
lhumerus -35.4116 14.9592 81.2104
lradius 20.9833
lwrist -14.3135
lhand -12.4215 29.5054
lfingers 7.12502
lthumb 13.6508 59.0378
rfemur 12.8395 5.20634 31.525
rtibia 11.6202
rfoot -13.0319 -2.34398
rtoes 2.18163
lfemur -28.9929 -1.90252 -14.7608
ltibia 23.0048
lfoot -9.93395 6.69733
ltoes -3.1616
82
root 9.85815 17.349 -17.2917 1.90581 -7.51021 -3.59936
lowerback 4.65884 2.13588 4.11187
upperback 0.369388 3.12372 2.94288
thorax -2.17611 1.52882 0.526546
lowerneck -15.1586 -4.16492 -9.7485
upperneck 23.2021 -4.53461 4.79307
head 10.2596 -2.40123 2.72422
rclavicle 6.95746e-015 -1.03368e-014
rhumerus -23.2775 -6.55373 -81.6676
rradius 34.4053
rwrist 3.48747
rhand -14.2216 13.0046
rfingers 7.12502
rthumb 11.9155 -16.6363
lclavicle 6.95746e-015 -1.03368e-014
lhumerus -35.3033 14.9851 81.1054
lradius 20.94
lwrist -14.7693
lhand -12.457 29.7961
lfingers 7.12502
lthumb 13.6166 59.3308
rfemur 12.7253 5.73942 31.2581
rtibia 12.8747
rfoot -13.4819 -2.49277
rtoes 1.58664
lfemur -28.4014 -1.83999 -15.1056
ltibia 23.0946
lfoot -9.4617 5.60531
ltoes -3.2305
83
root 9.87028 17.3546 -17.1305 1.9032 -7.85453 -3.38546
lowerback 4.53703 2.2236 4.02287
upperback 0.405902 3.22496 2.88224
thorax -2.06952 1.58185 0.51362
lowerneck -15.5572 -4.20133 -9.97524
upperneck 23.4418 -4.5479 5.01431
head 10.4357 -2.39966 2.838
rclavicle -8.39865e-015 -3.26007e-014
rhumerus -23.3313 -6.54508 -81.6337
rradius 34.3323
rwrist 3.47147
rhand -14.2494 13.113
rfingers 7.12502
rthumb 11.8886 -16.5295
lclavicle -8.39865e-015 -3.26007e-014
lhumerus -35.2695 15.4847 80.9164
lradius 20.6226
lwrist -15.2894
lhand -13.1715 28.564
lfingers 7.12502
lthumb 12.9279 58.1435
rfemur 12.7848 5.98127 30.9439
rtibia 13.8538
rfoot -13.2707 -2.19739
rtoes 2.01299
lfemur -27.8546 -2.04927 -15.4005
ltibia 23.2034
lfoot -9.45242 4.08942
ltoes -6.16842
84
root 9.88241 17.3783 -16.9685 1.84553 -8.11084 -3.02447
lowerback 4.44933 2.23432 3.82185
upperback 0.575549 3.2137 2.79104
thorax -1.85137 1.58218 0.540078
lowerneck -16.4855 -4.23137 -10.1807
upperneck 23.8516 -4.48416 5.16448
head 10.7691 -2.36389 2.93141
rclavicle 2.11706e-014 -1.35174e-014
rhumerus -23.1308 -6.453 -81.6664
rradius 34.3318
rwrist 3.53018
rhand -14.0043 12.7218
rfingers 7.12502
rthumb 12.125 -16.9068
lclavicle 2.11706e-014 -1.35174e-014
lhumerus -35.0883 16.0527 80.7849
lradius 20.3527
lwrist -15.5254
lhand -13.7573 27.3661
lfingers 7.12502
lthumb 12.3631 56.9805
rfemur 12.8569 6.01372 30.4319
rtibia 14.8398
rfoot -12.9862 -1.95399
rtoes -0.527037
lfemur -27.4706 -2.6241 -15.703
ltibia 23.2255
lfoot -7.48152 4.39271
ltoes -5.53527
